<svg xmlns="http://www.w3.org/2000/svg" width="822.599" height="230.344" viewBox="0 0 822.599 230.344"><path d="M171.292-80.514l9.6-18.129V0h-9.6Zm19.2-36.791,9.6-18.129V0h-9.6Zm19.2-36.258,9.6-18.262V0h-9.6ZM145.3-85.046l-5.465-10,66.117-125.7h10.8Zm-11.064-20.928-5.6-10.131,55.453-104.641h10.931Zm-64.251,8.4,9.6,18.129V0h-9.6ZM50.788-134.1l9.6,18.129V0h-9.6Zm-19.2-36.524,9.6,18.262V0h-9.6ZM109.173-57.586h-10.8l-76.381-144.9V0H12.4V-220.746h10.8Zm21.728,0H119.971L34.125-220.746H45.056Zm97.976-144.9L152.5-57.586H141.565L55.853-220.746h10.8L147.164-67.717l80.38-153.029h10.931V0h-9.6ZM419.231-97.043v-123.7h9.6v123.7q0,20.262-16,34.658t-38.391,14.4q-22.395,0-38.391-14.4t-16-34.658v-123.7h9.6v123.7q0,16.263,13.13,27.86t31.659,11.6q18.529,0,31.659-11.6T419.231-97.043Zm19.2,0v-123.7h9.6v123.7a61.959,61.959,0,0,1-5.865,26.46,69.689,69.689,0,0,1-15.729,21.795,74.065,74.065,0,0,1-23.461,14.6,76.6,76.6,0,0,1-28.526,5.4,76.6,76.6,0,0,1-28.526-5.4,74.065,74.065,0,0,1-23.461-14.6,69.689,69.689,0,0,1-15.729-21.795,61.959,61.959,0,0,1-5.865-26.46v-123.7h9.6v123.7a53.76,53.76,0,0,0,8.6,29.393,61.246,61.246,0,0,0,23.328,21.395,67,67,0,0,0,32.059,7.865A67,67,0,0,0,406.5-46.255,61.246,61.246,0,0,0,429.828-67.65,53.76,53.76,0,0,0,438.426-97.043Zm19.2,0v-123.7h9.6v123.7a80.736,80.736,0,0,1-7.4,33.925,88.783,88.783,0,0,1-19.8,27.927,93.249,93.249,0,0,1-29.593,18.662A95.373,95.373,0,0,1,374.442-9.6a95.373,95.373,0,0,1-35.991-6.932,93.249,93.249,0,0,1-29.593-18.662,88.783,88.783,0,0,1-19.8-27.927,80.736,80.736,0,0,1-7.4-33.925v-123.7h9.6v123.7a72.222,72.222,0,0,0,11.2,38.99,80.738,80.738,0,0,0,30.326,28.393A85.4,85.4,0,0,0,374.442-19.2,85.4,85.4,0,0,0,416.1-29.659a80.738,80.738,0,0,0,30.326-28.393A72.222,72.222,0,0,0,457.622-97.043Zm19.2,0v-123.7h9.6v123.7a100.344,100.344,0,0,1-15.063,53.387A109.188,109.188,0,0,1,430.495-4.732,113.524,113.524,0,0,1,374.442,9.6a113.524,113.524,0,0,1-56.053-14.33,109.188,109.188,0,0,1-40.857-38.924,100.344,100.344,0,0,1-15.063-53.387v-123.7h9.6v123.7A90.3,90.3,0,0,0,280.2-59.452,97.378,97.378,0,0,0,302.06-28.46,104.131,104.131,0,0,0,334.785-7.731,104.211,104.211,0,0,0,374.442,0,104.211,104.211,0,0,0,414.1-7.731,104.131,104.131,0,0,0,446.824-28.46a97.379,97.379,0,0,0,21.861-30.992A90.3,90.3,0,0,0,476.817-97.043Zm26.66-123.7h10.4L595.988-12.93,678.1-220.746h10.264L601.187,0h-10.4ZM602.653-47.988l-5.465,12.264L524.139-220.746H534.4Zm10.264-26.26-5.065,13.2L544.8-220.746h10.4Zm10.131-26.66-5.065,13.463-52.521-133.3h10.264Zm116.9-119.837h10.4L663.038,0H652.774Zm-20.528,0h10.264L642.376,0H632.112Zm-20.795,0h10.4L621.715,0H611.451Zm126.769,0H835V0h-9.6Zm-19.2,0h9.6V0h-9.6Zm-19.2,0h9.6V0h-9.6Zm-19.2,0h9.6V0h-9.6Z" transform="translate(-12.397 220.746)" fill="#fff"/></svg>