<svg xmlns="http://www.w3.org/2000/svg" xmlns:xlink="http://www.w3.org/1999/xlink" width="519.169" height="171.636" viewBox="0 0 519.169 171.636"><defs><linearGradient id="a" y1="1" x2="1.125" y2="1" gradientUnits="objectBoundingBox"><stop offset="0" stop-color="#ff7274"/><stop offset="1" stop-color="#ff007c"/></linearGradient><linearGradient id="b" x1="0.12" y1="0" x2="1" y2="0" xlink:href="#a"/></defs><g transform="translate(-136.152 43.212)"><path d="M45.089-38.812H52.24V125.672H45.089Zm-14.3,0h7.151V125.672H30.786Zm-14.3,0h7.151V125.672H16.483Zm-14.3,0H9.331V125.672H2.18Z" transform="translate(603.081 -4.399)" fill="url(#a)"/><path d="M120.576,65.679l7.151-13.508v73.5h-7.151Zm14.3-27.414,7.151-13.508V125.672h-7.151Zm14.3-27.017L156.334-2.36V125.672h-7.151ZM101.208,62.3l-4.072-7.449L146.4-38.812h8.045ZM92.964,46.707l-4.172-7.549,41.32-77.971h8.145ZM45.089,52.965,52.24,66.473v59.2H45.089ZM30.786,25.75l7.151,13.508v86.414H30.786ZM16.483-1.466l7.151,13.608v113.53H16.483ZM74.29,82.763H66.245L9.331-25.2V125.672H2.18V-38.812h8.045Zm16.19,0H82.336L18.37-38.812h8.145Zm73-107.968L106.572,82.763H98.427L34.56-38.812h8.045L102.6,75.214,162.492-38.812h8.145V125.672h-7.151Z" transform="translate(133.972 -4.399)" fill="#fff"/><path d="M118.753,53.362V-38.812H125.9V53.362q0,15.1-11.919,25.825A41.286,41.286,0,0,1,85.379,89.914,41.286,41.286,0,0,1,56.773,79.187Q44.854,68.46,44.854,53.362V-38.812h7.151V53.362q0,12.118,9.784,20.759a34.406,34.406,0,0,0,23.59,8.641,34.406,34.406,0,0,0,23.59-8.641Q118.753,65.48,118.753,53.362Zm14.3,0V-38.812h7.151V53.362a46.167,46.167,0,0,1-4.37,19.716,51.928,51.928,0,0,1-11.72,16.24,55.188,55.188,0,0,1-17.481,10.876,58.169,58.169,0,0,1-42.512,0A55.188,55.188,0,0,1,46.642,89.318a51.927,51.927,0,0,1-11.721-16.24,46.167,46.167,0,0,1-4.37-19.716V-38.812H37.7V53.362a40.058,40.058,0,0,0,6.407,21.9A45.636,45.636,0,0,0,61.491,91.205a51.617,51.617,0,0,0,47.776,0,45.636,45.636,0,0,0,17.382-15.942A40.058,40.058,0,0,0,133.056,53.362Zm14.3,0V-38.812h7.151V53.362A60.158,60.158,0,0,1,149,78.641a66.155,66.155,0,0,1-14.75,20.809,69.482,69.482,0,0,1-22.05,13.906,72.206,72.206,0,0,1-53.636,0A69.482,69.482,0,0,1,36.511,99.45a66.154,66.154,0,0,1-14.75-20.809,60.159,60.159,0,0,1-5.513-25.279V-38.812H23.4V53.362a53.814,53.814,0,0,0,8.343,29.053,60.16,60.16,0,0,0,22.6,21.156,63.63,63.63,0,0,0,31.039,7.8,63.63,63.63,0,0,0,31.039-7.8,60.16,60.16,0,0,0,22.6-21.156A53.814,53.814,0,0,0,147.359,53.362Zm14.3,0V-38.812h7.151V53.362a74.769,74.769,0,0,1-11.224,39.78,81.359,81.359,0,0,1-30.443,29,84.59,84.59,0,0,1-41.767,10.678,84.59,84.59,0,0,1-41.767-10.678,81.359,81.359,0,0,1-30.443-29A74.769,74.769,0,0,1,1.945,53.362V-38.812H9.1V53.362a67.283,67.283,0,0,0,6.059,28.01,72.559,72.559,0,0,0,16.29,23.093,79.7,79.7,0,0,0,53.934,21.206,79.7,79.7,0,0,0,53.934-21.206A72.56,72.56,0,0,0,155.6,81.372,67.283,67.283,0,0,0,161.662,53.362Z" transform="translate(295.434 -4.399)" fill="url(#b)"/><path d="M.867-38.812H8.615L69.8,116.037,130.984-38.812h7.648L73.673,125.672H65.926Zm73.9,128.727-4.072,9.138L16.263-38.812h7.648Zm7.648-19.567L78.64,80.18,31.658-38.812h7.747Zm7.549-19.865L86.188,60.514,47.054-38.812H54.7Zm87.109-89.294h7.747L119.761,125.672h-7.648Zm-15.3,0h7.648L104.365,125.672H96.717Zm-15.495,0h7.747L88.97,125.672H81.321Z" transform="translate(442.63 -4.399)" fill="#fff"/></g></svg>