<svg xmlns="http://www.w3.org/2000/svg" xmlns:xlink="http://www.w3.org/1999/xlink" width="111" height="111" viewBox="0 0 111 111"><defs><linearGradient id="a" y1="1" x2="1" gradientUnits="objectBoundingBox"><stop offset="0" stop-color="#ff7274"/><stop offset="1" stop-color="#ff007c"/></linearGradient></defs><g transform="translate(-349 506)"><rect width="111" height="111" rx="9" transform="translate(349 -506)" fill="#f8f8f8"/><path d="M60.059,12.269l3.5-6.6V41.6h-3.5Zm6.992-13.4,3.5-6.6V41.6h-3.5ZM74.044-14.34l3.5-6.652V41.6h-3.5ZM50.591,10.618,48.6,6.976,72.684-38.813h3.933ZM46.56,2.995,44.521-.7l20.2-38.117H68.7Zm-23.4,3.059,3.5,6.6V41.6h-3.5Zm-6.992-13.3,3.5,6.6V41.6h-3.5Zm-6.992-13.3,3.5,6.652V41.6h-3.5Zm28.26,41.176H33.5L5.676-32.16V41.6H2.18v-80.41H6.113Zm7.915,0H41.365L10.094-38.813h3.982ZM81.036-32.16,53.213,20.621H49.231L18.009-38.813h3.933L51.27,16.931,80.55-38.813h3.982V41.6h-3.5Z" transform="translate(361.193 -451.524)" fill="url(#a)"/></g></svg>